<?xml version="1.0" standalone="no"?>
<!DOCTYPE svg PUBLIC "-//W3C//DTD SVG 20010904//EN"
 "http://www.w3.org/TR/2001/REC-SVG-20010904/DTD/svg10.dtd">
<svg version="1.0" xmlns="http://www.w3.org/2000/svg"
 width="120.000000pt" height="120.000000pt" viewBox="0 0 120.000000 120.000000"
 preserveAspectRatio="xMidYMid meet">
<metadata>
Created by potrace 1.11, written by Peter Selinger 2001-2013
</metadata>
<g transform="translate(0.000000,120.000000) scale(0.100000,-0.100000)"
fill="#000000" stroke="none">
<path d="M1020 1130 c-61 -11 -113 -43 -170 -104 -145 -155 -135 -147 -166
-135 -37 14 -131 14 -168 0 -28 -11 -31 -9 -110 74 -101 106 -147 130 -256
133 -77 3 -79 2 -93 -25 -56 -113 -66 -395 -20 -573 3 -14 7 -31 9 -39 6 -28
27 -36 98 -36 62 1 73 -2 68 -15 -8 -22 -48 -93 -108 -192 -68 -112 -62 -118
71 -71 55 19 110 37 122 40 23 5 81 -17 105 -40 27 -25 121 -68 130 -59 5 5 3
26 -6 53 -13 42 -37 137 -42 169 -15 100 -22 246 -12 256 3 2 20 -4 39 -13 44
-23 143 -23 187 -1 31 16 32 16 33 -5 4 -71 -3 -192 -15 -257 -9 -48 -17 -106
-22 -163 -8 -88 14 -86 160 18 l48 35 84 -44 c47 -25 97 -46 112 -48 24 -3 27
0 26 27 -1 17 -31 95 -68 174 -36 79 -66 145 -66 147 0 1 33 1 74 -2 84 -6 78
-12 102 101 40 189 37 313 -12 527 -12 51 -68 80 -134 68z"/>
</g>
</svg>
