<svg version="1" xmlns="http://www.w3.org/2000/svg" width="664" height="664" viewBox="0 0 498.000000 498.000000"><path d="M228 11.9c0 .6-.7.8-1.5.5-.8-.4-3.9.1-6.8 1.1-2.8.9-6 1.9-6.9 2.1-4.1.9-5.5 1.2-9.5 1.9-2.4.4-4.5 1.1-4.9 1.6-.3.5-1 .7-1.5.4-.5-.4-.9-.2-.9.2 0 .5-1 .9-2.2 1-1.1.1-2.4.6-2.7 1-.3.5-2.6 2.1-5.1 3.5-6.3 3.7-18.5 16-20.6 20.8-1 2.2-2.1 4-2.6 4-.8 0-5 7.6-5.4 9.6-.5 3.1-1.6 5.4-2.5 5.4-.6 0-.8.4-.4.9.3.5-.1 1.6-.9 2.4-2.6 2.5-5.4 16.5-5.7 27.7-.1 6 1.1 22.1 1.7 23.2.2.3.7 2.8 1 5.5.3 2.6 1.1 5.4 1.7 6.2.8 1 .8 1.3.1.8-.8-.5-.8.5.1 3 1.8 5.4.8 6.9-2.2 3.3-4-4.8-12-3.6-12.4 1.8-.1.9-.3 7.6-.5 14.8-.2 11.9.2 15.8 3.1 27.8 2.5 10.5 6.9 19.2 10.8 21.1 3.6 1.8 7.9 1.9 9.5.3.7-.7 1.2-1 1.3-.7 0 .2.3 1.7.5 3.4.3 1.6 1.2 5.7 2.1 9 .8 3.3 1.7 6.9 1.9 8 .4 2 1.1 3.7 4.3 10.3 1.8 3.8 5.2 8.1 9.7 12.3 2.8 2.6 3 3.4 2.7 8-.3 4.8-3.2 10.6-4.7 9.2-.3-.3-.6.1-.6 1 0 .8-.6 2.2-1.3 2.9-1.9 2-4.3 7.7-5.7 13.6-1 4.2-1.7 5.3-3.6 5.8-1.3.3-2.4 1.1-2.4 1.6 0 .6-.6.8-1.4.5-.7-.3-1.7-.2-2.2.3-.5.5-2 1.1-3.4 1.4-1.4.2-4.4.9-6.8 1.4-2.3.6-4.5 1-4.7 1.1-.3.1-1.5.1-2.8.1-2.3 0-6.3 5.1-5 6.4.3.3.2.6-.4.6-.6 0-1.3.8-1.5 1.8-.5 1.8-7.3 6-10.6 6.5-2.4.4-17.5 8-19.2 9.7-.3.3-1.5 1.1-2.7 1.7-1.3.7-3.3 1.9-4.5 2.5-1.3.7-2.5 1.6-2.8 1.9-.5.6-9.1 5.2-10 5.4-1.3.2-10.6 3.9-11.6 4.7-.6.4-1.3.6-1.6.3-.2-.2-2.6 1.6-5.2 4-2.6 2.5-4.4 4.5-4 4.5.3 0 .2.6-.3 1.3-1.3 1.5-4 10-4.8 14.6-.3 1.9-.7 3.7-.9 4-.5.7-1.7 7.6-2.1 11.6-.1 1.6-.4 3-.5 3-.3 0-.9 5.6-1.2 11.8-.2 3.1-.5 5.7-.8 5.7-.3 0-.6 2.6-.7 5.8-.4 16.9-1.2 29.2-1.8 30.1-.3.6-.1 1.1.5 1.1s.8.5.4 1.2c-.4.6-.9 10.4-1.2 21.7-.4 20.4-.4 20.6 1.6 18.8 1.1-1 2.8-1.8 3.8-1.8 2.8 0 13.5 1 16.9 1.6 6.8 1.3 10.4 1.7 17 2 3.9.2 7 .4 7 .5 0 .1 1.2.3 2.8.4 1.5.1 2.7-.1 2.7-.5 0-.3.7-.6 1.5-.6s1.5.3 1.5.6c0 .6 9.8.6 11 .1.3-.1.9-.2 1.5 0 3.8.7 8.5.5 8.5-.3s.3-.8 1.1 0c.6.6 2.3.8 4.5.3 1.9-.5 3.2-.4 2.8.1-.7 1.1-.1 1.1 3-.1 1.5-.5 2.8-.5 3.1 0 .3.5 1.8.5 3.3.2 1.5-.4 8-.7 14.4-.7 6.5 0 11.8-.2 11.8-.5s4.8-.6 10.8-.7c5.9-.1 15-.5 20.2-.9 5.2-.4 11.9-.7 14.7-.8 2.9-.1 5.3-.3 5.3-.7 0-.5.3-.6 12.2-1.1 4.2-.2 7.4-.6 7.2-1-.4-.7 6.7-1.7 13.1-1.9 3.8-.1 14.3.7 21.1 1.6 4.5.6 14.7 1.8 16.2 1.8.6 0 1.2.3 1.2.6s1.5.6 3.3.7c9 .2 16.7 1 16.7 1.6 0 .4 1.1.3 2.5-.2s2.5-.6 2.5-.2c0 .4 2.9.7 6.5.7s6.5-.3 6.5-.8c0-.4.8-.3 1.8.2 1.3.7 2.3.6 3-.1.8-.8 1.2-.8 1.2-.2 0 .6.7 1.1 1.5 1.1s1.5-.5 1.5-1.1c0-.7.3-.7.8-.1.8 1.2 14.2 1.4 14.2.2 0-.4.8-.3 1.8.2 1.3.7 2.3.6 3-.1.9-.9 1.2-.9 1.2 0 0 1.4 2.1 1.2 3.2-.3.5-.7.8-.7.8 0 0 1.2 12.9 1.3 14.8.1.6-.4 1.2-.4 1.2.1 0 .4 2.4.9 5.3 1 9.4.2 21.8 1.3 22.8 1.8.5.4.9.3.9-.2 0-.4 4.7-.8 10.5-.8s10.5-.2 10.5-.5c0-.8 7.4-.5 8.8.3 1.4 1 1.5-.2 1.2-16.3-.2-6.3-.3-16.1-.4-21.7 0-5.7-.5-10.3-.9-10.3s-.3-.9.3-2 .7-2 .3-2c-.4 0-.9-2.6-1-5.8-.8-29.1-1.2-36.3-2.1-40.2-.6-2.5-1.3-6.3-1.6-8.5-.4-2.3-.8-5-1-6.2-.3-1.2-.8-4.2-1.1-6.7-.4-2.5-1-4.6-1.4-4.6-.4 0-.8-1.2-.9-2.7-.1-1.5-.8-3-1.5-3.5-.6-.4-.8-.8-.3-.8s.2-.8-.6-1.8c-.8-.9-1.8-2.4-2.1-3.4-.6-1.7-8.9-7.8-10.6-7.8-.6 0-3-.8-5.4-1.9-7.2-3.1-10.2-4.3-10.2-3.9 0 .1-1.4-.7-3.1-1.9-1.7-1.2-3.4-2-3.8-1.6-.3.3-.6.1-.6-.6s-.4-1-.9-.7c-.5.4-1.1.3-1.3-.1-.4-.9-15.5-8.1-18.8-8.9-3.5-.9-5.2-2.2-6.9-5-1.5-2.6-3.1-3.7-6.5-4.6-3.1-.8-4.6-1.8-5-3.2-.7-2.8-3.7-4.5-8.9-5.2-10.9-1.5-27.7-8.5-27.7-11.6 0-1.1-.5-2.9-1.1-4.1-1.4-2.5-7.9-9.3-7.9-8.3 0 .4-1.3-.3-2.8-1.6-1.6-1.2-4.8-3.8-7-5.7-4.6-3.8-5.3-6.4-2.2-8.3 1.1-.7 2-1.8 2-2.5s.4-1.3.8-1.3c1.3 0 8.8-12.1 11.5-18.5 2.2-5.3 3.9-11 6.3-21 .4-1.7.7-4 .7-5.3 0-2.1.3-2.2 4.3-1.6 8.4 1.2 13.4-4.6 16.1-18.6.2-1.3.7-2.9 1.1-3.5.4-.5.7-2.9.7-5.3-.1-2.3.2-4.2.5-4.2s.4-4.2.3-9.2c0-5.1-.2-9.3-.3-9.3-.8 0-.5-6.2.4-6.7.8-.5.7-.8-.2-.8-.7 0-1.1-.4-.8-.8.3-.5.1-2.6-.5-4.6-1.2-4.2-4.7-6.3-8-4.6-1 .6-1.9.9-1.9.6 0-.3-1.2.6-2.7 2-1.4 1.3-2.7 2.3-2.9 2.1-.2-.1.3-4.3 1.1-9.2 2-12.2 2.8-19.9 2.9-27 0-3.3.5-6.3 1.1-6.7.6-.5.6-.8-.2-.8-.6 0-1.1-.8-1.1-1.8.1-2-.6-5.3-2.2-10.2-.6-1.9-1.3-4.6-1.6-6-.3-1.3-.8-2.7-1.2-3-.4-.3-.8-1.8-1-3.5-.2-1.6-.8-3.5-1.4-4.2-.6-.7-.7-1.3-.3-1.3.4 0 .2-.6-.4-1.3-.6-.8-.8-1.7-.4-2 .3-.4 0-.7-.7-.7s-1-.3-.7-.6c1.5-1.5-6.7-14.4-12.8-20.2-3.4-3.3-6.1-6.3-5.8-6.6.3-.2-.8-1.3-2.4-2.3-1.5-1-3.2-2.1-3.8-2.6-2.5-2-21.5-12-26-13.7-2.7-1-7.9-2.1-11.5-2.5-3.6-.3-8.5-.8-11-1.1-2.5-.3-6.6-.7-9.1-.8-2.6-.2-5.2-.7-5.8-1-.6-.4-1.1-.3-1.1.3zm74 256.2c3.8 3.5 4.4 4.3 2 2.7-1.9-1.2-4.2-3.1-5.1-4.1-.9-.9-2.1-1.7-2.8-1.7-.6 0-1.1-.5-1.1-1 0-1.8 1.5-1 7 4.1zm41.9 27.3c1.9.1 3.6.8 3.7 1.5.1.6.1.8-.2.4-.2-.5-3-.7-6.1-.7-4.5.2-6.8-.4-10.3-2.4-7.1-4-6.8-4.2 1.6-1.6 4.4 1.3 9.4 2.6 11.3 2.8zm-211.5 13.5c-1 1-2.1 1.9-2.4 1.9-.3 0-.7 0-1 .2-1.6.6-5.3.9-4.8.4.3-.3 1.2-.7 2-.8.7-.1 2.7-.9 4.3-1.9 3.9-2.1 4.3-2.1 1.9.2zm289.9 28.2c1.5 1.1 2.7 2.6 2.6 3.2 0 .9-.2.9-.5 0-.3-.7-2.1-2.2-4-3.3-1.9-1.2-3.4-2.6-3.4-3.1 0-.6.5-.5 1.3.1.6.5 2.4 1.9 4 3.1z"/></svg>